<svg viewBox="0 0 100 100" xmlns="http://www.w3.org/2000/svg">
  <circle cx="50" cy="50" r="50" fill="#c9974f"/>
  <g stroke="#1b3a5c" stroke-width="2.5" stroke-linecap="round" fill="none" opacity="0.9">
    <path d="M30 34 L14 24 M30 34 L10 36 M30 34 L15 48"/>
    <path d="M70 34 L86 24 M70 34 L90 36 M70 34 L85 48"/>
  </g>
  <path d="M50 10 L60 26 H40 Z" fill="#1b3a5c"/>
  <rect x="41.5" y="26" width="17" height="8" fill="#1b3a5c"/>
  <rect x="45" y="26" width="1.6" height="8" fill="#c9974f"/>
  <rect x="53.4" y="26" width="1.6" height="8" fill="#c9974f"/>
  <path d="M42 34 H58 L67 82 H33 Z" fill="#1b3a5c"/>
  <rect x="38" y="44" width="24" height="4" fill="#c9974f"/>
  <rect x="36" y="56" width="28" height="4" fill="#c9974f"/>
  <rect x="34" y="68" width="32" height="4" fill="#c9974f"/>
  <path d="M27 82 H73 L79 92 H21 Z" fill="#1b3a5c"/>
</svg>
